<?xml version="1.0" encoding="UTF-8"?>
        <svg width="70" height="70" version="1.1" viewBox="0 0 70 70" xmlns="http://www.w3.org/2000/svg" xmlns:cc="http://creativecommons.org/ns#" xmlns:dc="http://purl.org/dc/elements/1.1/" xmlns:rdf="http://www.w3.org/1999/02/22-rdf-syntax-ns#" xmlns:xlink="http://www.w3.org/1999/xlink">
        <defs>
        <linearGradient id="a">
        <stop stop-color="#fdfdfd" offset="0"/>
        <stop stop-color="#b6b6b6" offset="1"/>
        </linearGradient>
        <radialGradient id="d" cx="82.679" cy="50.613" r="74.566" 
        gradientTransform="matrix(-.68194 .046763 -.03157 -.46038 112.86 53.149)" gradientUnits="userSpaceOnUse">
        <stop stop-color="#fe5400" offset="0"/>
        <stop stop-color="#722700" offset="1"/>
        </radialGradient>
        <radialGradient id="c" cx="144.88" cy="82.263" r="15.505" 
        gradientTransform="matrix(.46327 0 0 .46327 -8.8205 -18.34)" 
        gradientUnits="userSpaceOnUse" xlink:href="#a"/>
        <radialGradient id="b" cx="144.88" cy="82.263" r="15.505" 
        gradientTransform="matrix(.46327 0 0 .46327 -8.3359 3.7933)" 
        gradientUnits="userSpaceOnUse" xlink:href="#a"/>
        </defs>
        <metadata>
        <rdf:RDF>
        <cc:Work rdf:about="">
        <dc:format>image/svg+xml</dc:format>
        <dc:type rdf:resource="http://purl.org/dc/dcmitype/StillImage"/>
        <dc:title/>
        </cc:Work>
        </rdf:RDF>
        </metadata>
        <path d="m34.926 69.729c-1.9784 
        0-18.381-0.16632-20.269-0.48572-8.6417-1.4624-12.525-4.459-13.898-11.071-0.71673-3.4509 
        10.856-7.4303 10.862-11.758 0.0047-3.0344-10.862-6.5572-10.862-11.05 0-4.7077 10.846-7.6997 
        11.064-11.789 0.22935-4.2845-12.466-9.807-11.064-13.013 1.9526-4.4651 7.457-7.6857 13.898-9.1083 
        2.4098-0.53225 17.699-0.81286 20.269-0.81286 19.078-9.3e-7 34.544 15.466 34.544 34.544-1e-6 
        19.078-15.466 34.544-34.544 34.544z" fill="url(#d)" stroke-dasharray="1.85309, 1.85308999999999990" 
        stroke-opacity=".98824" stroke-width=".46327"/>
        <circle cx="61.614" cy="45.951" r="7.183" fill="url(#b)" stroke-dasharray="1.85309, 1.85309" 
        stroke-opacity=".98824" stroke-width=".46327"/>
        <circle cx="61.129" cy="23.818" r="7.183" fill="url(#c)" stroke-dasharray="1.85309, 1.85309" 
        stroke-opacity=".98824" stroke-width=".46327"/>
        <circle cx="64.851" cy="46.086" r="3.4744" stroke-dasharray="1.85309, 1.85309" stroke-opacity=".98824" 
        stroke-width=".46327"/>
        <circle cx="64.294" cy="24.347" r="3.4744" stroke-dasharray="1.85309, 1.85309" stroke-opacity=".98824" 
        stroke-width=".46327"/>
        <path d="m55.412 38.61-5.9871 11.179" fill="none" stroke="#000" stroke-linecap="round" 
        stroke-linejoin="round" stroke-width="1.7442" style="paint-order:normal"/>
        <path d="m55.294 31.14-5.9871-11.179" fill="none" stroke="#000" stroke-linecap="round" 
        stroke-linejoin="round" stroke-width="1.7442" style="paint-order:normal"/>
        </svg>
        