<svg version="1.1" xmlns="http://www.w3.org/2000/svg" xmlns:xlink="http://www.w3.org/1999/xlink" width="139.65548" height="97.10258" viewBox="0,0,139.65548,97.10258"><defs><radialGradient cx="240" cy="180" r="68.21808" gradientUnits="userSpaceOnUse" id="color-1"><stop offset="0" stop-color="#0aabff"/><stop offset="1" stop-color="#0662a2"/></radialGradient><radialGradient cx="307.7763" cy="149.55081" r="5" gradientUnits="userSpaceOnUse" id="color-2"><stop offset="0" stop-color="#010c14"/><stop offset="1" stop-color="#0de8ff"/></radialGradient><radialGradient cx="297.31329" cy="212.27264" r="3.35998" gradientUnits="userSpaceOnUse" id="color-3"><stop offset="0" stop-color="#010c14"/><stop offset="1" stop-color="#0de8ff"/></radialGradient></defs><g transform="translate(-183.62083,-134.05081)"><g data-paper-data="{&quot;isPaintingLayer&quot;:true}" fill="none" fill-rule="nonzero" stroke="none" stroke-width="none" stroke-linecap="butt" stroke-linejoin="miter" stroke-miterlimit="10" stroke-dasharray="" stroke-dashoffset="0" font-family="none" font-weight="none" font-size="none" text-anchor="none" style="mix-blend-mode: normal"><path d="M198.49373,138.49373c16.64294,-6.66666 40.6281,-2.98097 71.95545,11.05708c9.5439,0.02324 10.15172,20.93052 1.82346,62.72183c-36.78648,11.81824 -59.68596,28.88129 -75.93475,11.38947c-12.69692,-16.20944 -21.62672,-69.52396 2.15584,-85.16837z" data-paper-data="{&quot;origPos&quot;:null}" fill="url(#color-1)" stroke="none" stroke-width="1"/><path d="M268.84111,155.17905c12.44238,-6.66666 24.88474,-6.66666 37.32712,0" data-paper-data="{&quot;origPos&quot;:null}" fill-opacity="0" fill="#000000" stroke="#077aca" stroke-width="5"/><path d="M292.7763,149.55081c0,-8.28427 6.71573,-15 15,-15c8.28427,0 15,6.71573 15,15c0,8.28427 -6.71573,15 -15,15c-8.28427,0 -15,-6.71573 -15,-15z" fill="url(#color-2)" stroke="#05558d" stroke-width="1"/><path d="M297.31329,212.27264c-8.31973,4.46541 -26.75018,-0.5409 -28.87839,-1.51981c-0.7094,-0.3263 4.52576,1.88909 3.83774,1.51981" data-paper-data="{&quot;origPos&quot;:null}" fill-opacity="0" fill="#000000" stroke="#077aca" stroke-width="5"/><path d="M287.23332,212.27264c0,-5.56701 4.51295,-10.07996 10.07996,-10.07996c5.56701,0 10.07996,4.51295 10.07996,10.07996c0,5.56701 -4.51295,10.07996 -10.07996,10.07996c-5.56701,0 -10.07996,-4.51295 -10.07996,-10.07996z" fill="url(#color-3)" stroke="#05558d" stroke-width="1"/></g></g></svg>