<?xml version="1.0" encoding="UTF-8"?>
<svg width="70" height="52" version="1.1" viewBox="0 0 70 52" xmlns="http://www.w3.org/2000/svg" xmlns:cc="http://creativecommons.org/ns#" xmlns:dc="http://purl.org/dc/elements/1.1/" xmlns:rdf="http://www.w3.org/1999/02/22-rdf-syntax-ns#">
<metadata>
<rdf:RDF>
<cc:Work rdf:about="">
<dc:format>image/svg+xml</dc:format>
<dc:type rdf:resource="http://purl.org/dc/dcmitype/StillImage"/>
<dc:title/>
</cc:Work>
</rdf:RDF>
</metadata>
<g>
<path d="m3.2398 39.996c2.9814 4.9523 8.4385 9.3963 14.662 10.902s13.213 0.07342 19.793-0.37979c6.58-0.45321 12.75 0.07268 16.356-2.1331 3.6066-2.2058 4.6499-7.1431 6.5249-11.627s4.5813-8.5128 6.7048-13.918c2.1235-5.4052 3.6641-12.186 1.251-15.51-2.4131-3.3238-8.7797-3.1905-14.314-3.927-5.5346-0.73655-10.237-2.343-14.808-2.9061-4.5711-0.56316-9.0108-0.082988-13.948 0.40829s-10.372 0.99363-13.252 3.4257c-2.8795 2.432-3.2034 6.7935-4.9379 10.414-1.7346 3.6201-4.8797 6.4988-6.1995 10.669-1.3198 4.1698-0.8142 9.6303 2.1672 14.583z" fill="#1daa57"/>
<path d="m6.4112 38.252c2.7023 4.4887 7.6486 8.5166 13.29 9.8814 5.641 1.3648 11.977 0.06655 17.941-0.34424 5.964-0.41079 11.556 0.06588 14.825-1.9334 3.2689-1.9993 4.2146-6.4745 5.914-10.538s4.1524-7.7159 6.0771-12.615c1.9247-4.8992 3.3211-11.045 1.1339-14.058-2.1872-3.0127-7.9578-2.8918-12.974-3.5594-5.0165-0.6676-9.2785-2.1237-13.422-2.6341-4.1432-0.51044-8.1672-0.075218-12.642 0.37007-4.4752 0.44529-9.4014 0.90062-12.011 3.105s-2.9035 6.1575-4.4757 9.4388c-1.5722 3.2812-4.4229 5.8904-5.6192 9.6698-1.1962 3.7794-0.73798 8.7287 1.9643 13.217z" fill="#2cda74"/>
<path d="m22.501 14.359c-5.4701 3.419-10.761 7.8901-11.509 12.84s3.0475 10.378 8.1035 12.796 11.372 1.8269 17.419-0.32677 11.822-5.8695 15.245-10.953 4.4925-11.535 2.4197-14.057c-2.0728-2.5229-7.2877-1.1174-10.296-1.8711-3.0087-0.75374-3.8109-3.6667-7.0367-3.9398-3.2258-0.27313-8.8748 2.0936-14.345 5.5126z" fill="#711ff9"/>
<path d="m23.21 15.842c-4.8014 3.001-9.4456 6.9255-10.102 11.27s2.6749 9.1089 7.1128 11.231c4.4379 2.1226 9.982 1.6036 15.289-0.28682s10.377-5.1519 13.381-9.614 3.9432-10.124 2.1239-12.339c-1.8193-2.2144-6.3968-0.98076-9.0376-1.6424-2.6409-0.66159-3.345-3.2184-6.1764-3.4582-2.8314-0.23974-7.7898 1.8377-12.591 4.8386z" fill="#c0a8eb"/>
<path d="m44.085 21.608c-2.0853 0.38435-4.4253 2.8167-7.0004 5.3998s-5.3852 5.3168-5.2633 7.0917c0.12192 1.775 3.1756 2.5912 5.9828 1.5673 2.8072-1.0239 5.3676-3.8878 7.3311-6.0472 1.9634-2.1594 3.3297-3.614 3.0976-5.1732-0.23207-1.5592-2.0626-3.2228-4.1479-2.8384z" fill="#30b5cc"/>
<path d="m19.07 27.55c-1.4846-0.54252-3.2893 1.2475-3.0274 3.1544 0.26188 1.9069 2.5902 3.9306 4.9852 4.5666s4.8568-0.11572 6.7897-2.1896c1.9329-2.0739 3.3368-5.4699 4.0094-8.1815 0.67265-2.7116 0.61399-4.7387-0.55635-5.1725-1.1703-0.43377-3.4523 0.72586-5.0354 3.344s-2.4673 6.6945-3.4917 7.2953c-1.0244 0.60076-2.1888-2.2741-3.6735-2.8166z" fill="#30b5cc"/>
<path d="m31.759 14.468c0.94386-0.56196 2.5092-0.61196 5.0659-0.11123s6.1045 1.5521 6.7112 2.9142c0.60668 1.3621-1.7277 3.0349-3.8166 4.6601-2.089 1.6252-3.9324 3.2027-4.8906 2.5896s-1.0312-3.4168-1.66-5.0058c-0.62881-1.589-1.8135-1.9631-2.2447-2.6871-0.43125-0.72399-0.10896-1.7978 0.8349-2.3598z" fill="#30b5cc"/>
<path d="m30.713 25.278c0.90035 2.7708-4.2768 8.0951-5.1561 8.095-0.87925 3e-6 -0.19375-2.7185 1.8935-4.4238 1.2035-0.98328 1.8592-1.6236 0.9912-4.5268-0.77204-2.5823 1.7911-0.62255 2.2714 0.8555z" fill="#1b6b78"/>
<path d="m43.588 23.755c-1.0605 0.28855-3.1651 1.9198-4.9011 3.5197-1.736 1.6-3.1032 3.1686-3.393 3.9944-0.28973 0.82585 0.49798 0.90888 1.3831 0.30662 0.8851-0.60226 1.8676-1.8897 3.2179-3.0042s3.0683-2.0557 3.9191-3.0534c0.85085-0.99767 0.83448-2.0517-0.22602-1.7631z" fill="#1b6b78"/>
<path d="m37.603 20.325c0.17333 0.62239-0.33871 2.05-1.0099 2.6991-0.67124 0.64909-1.5017 0.51971-1.9855-0.49243-0.48376-1.0121-0.6207-2.907-0.37877-3.4647 0.24193-0.55766 0.86266 0.22188 1.6024 0.52019 0.73975 0.2983 1.5985 0.11544 1.7718 0.73783z" fill="#1b6b78"/>
</g>
</svg>
