<?xml version="1.0" encoding="UTF-8"?>
<svg version="1.1" viewBox="0 0 70 70" xmlns="http://www.w3.org/2000/svg" xmlns:cc="http://creativecommons.org/ns#" xmlns:dc="http://purl.org/dc/elements/1.1/" xmlns:rdf="http://www.w3.org/1999/02/22-rdf-syntax-ns#">
<metadata>
<rdf:RDF>
<cc:Work rdf:about="">
<dc:format>image/svg+xml</dc:format>
<dc:type rdf:resource="http://purl.org/dc/dcmitype/StillImage"/>
<dc:title/>
</cc:Work>
</rdf:RDF>
</metadata>
<g stroke-linecap="round" stroke-linejoin="round">
<path d="m5.1212 17.248c0.43355-0.79241 20.849 10.26 21.413 9.55 0.56422-0.70951-14.095-17.957-13.356-18.515 0.73885-0.55762 15.2 17.214 15.986 16.729 0.78627-0.48483-6.3583-22.123-5.4894-22.407 0.86889-0.28443 8.5929 20.102 9.5076 19.961 0.91474-0.14031 1.5245-22.511 2.4346-22.533 0.9101-0.022028 1.1626 21.943 2.0556 22.073s7.8205-19.399 8.6765-19.12c0.85599 0.2794-7.1624 21.267-6.3749 21.735 0.78746 0.46754 17.332-17.482 18.01-16.859 0.67769 0.62354-14.372 19.041-13.772 19.732 0.59958 0.69056 21.008-9.4318 21.414-8.6214 0.40561 0.81036-20.292 10.674-20.027 11.532 0.26525 0.85846 22.43-1.5318 22.582-0.63656 0.1528 0.89527-21.853 3.307-21.911 4.2092-0.05806 0.90221 23.363 6.716 23.168 7.6131-0.19432 0.89709-22.54-2.32-22.832-1.4631-0.29182 0.85689 18.34 10.961 17.86 11.746-0.48042 0.78445-20.4-8.8922-20.961-8.1842-0.56043 0.70794 14.018 17.075 13.32 17.668-0.6983 0.59244-16.5-16.163-17.288-15.708-0.78765 0.45493 6.4366 22.277 5.5724 22.583-0.86428 0.30556-7.3433-22.453-8.2527-22.282-0.90934 0.17119-1.5517 23.767-2.4734 23.711-0.92163-0.055903-1.0172-22.277-1.8973-22.474-0.88014-0.19659-10.186 19.76-11.049 19.466-0.86311-0.29397 7.1632-20.583 6.4091-21.079-0.75413-0.49653-15.088 15.424-15.791 14.834-0.70296-0.58991 14.336-16.559 13.772-17.27s-21.304 8.7862-21.744 7.9792c-0.44063-0.80701 18.456-12.496 18.141-13.351-0.31471-0.85483-20.813 3.5164-20.936 2.6263-0.12306-0.89017 20.281-5.2937 20.264-6.1989s-21.599-5.6672-21.402-6.5712c0.19654-0.904 23.063 4.4933 23.402 3.6603 0.33823-0.83298-18.865-13.342-18.431-14.135z" fill="#c61919" stroke-width="2.4156"/>
<path d="m16.527 24.148c0.26892-0.49152 12.932 6.3639 13.282 5.9238 0.34998-0.4401-8.0954-10.671-7.6371-11.017 0.4583-0.34588 8.7808 10.21 9.2685 9.9093 0.48771-0.30074-3.944-13.722-3.405-13.899 0.53896-0.17643 5.3301 12.469 5.8975 12.382 0.56741-0.08703 0.94563-13.963 1.5102-13.977 0.56452-0.01367 0.72116 13.611 1.275 13.692 0.55387 0.08095 4.851-12.033 5.3819-11.86 0.53096 0.17331-4.4427 13.192-3.9543 13.482 0.48845 0.29001 9.6345-10.094 10.055-9.7068 0.42037 0.38677-7.7984 11.061-7.4265 11.489 0.37192 0.42834 7.1119-3.4165 7.3635-2.9138 0.2516 0.50265-6.6677 4.1867-6.5032 4.7192 0.16455 0.53249 4.5296-0.35495 4.6243 0.20038 0.09476 0.55533-4.1718 1.456-4.2079 2.0157-0.03602 0.55963 14.492 4.1658 14.371 4.7223-0.12052 0.55645-13.981-1.4391-14.162-0.90753-0.181 0.53152 11.376 6.7992 11.078 7.2858-0.298 0.48659-12.654-5.5157-13.002-5.0766-0.34762 0.43912 8.6951 10.592 8.262 10.959-0.43314 0.36748-10.235-10.026-10.723-9.7437-0.48857 0.28219 3.9926 13.818 3.4565 14.008-0.5361 0.18954-4.555-13.927-5.119-13.821-0.56405 0.10617-0.96253 14.742-1.5342 14.707-0.57168-0.034684-0.63096-13.818-1.1769-13.94-0.54594-0.12194-6.318 12.257-6.8533 12.075-0.53537-0.18234 4.4433-12.767 3.9755-13.075-0.46778-0.30799-7.8274 7.7-8.2634 7.3341-0.43604-0.36591 7.3607-8.4044 7.0111-8.8452-0.3496-0.44083-13.214 5.45-13.488 4.9494s11.448-7.7514 11.253-8.2817-11.854 1.2507-11.93 0.69852c-0.07633-0.55216 11.524-2.3531 11.514-2.9146-0.01043-0.56148-12.788-3.4851-12.666-4.0458 0.12191-0.56074 13.697 2.7569 13.906 2.2402 0.2098-0.51669-11.702-8.2759-11.433-8.7675z" fill="#400808" stroke-width="1.4984"/>
</g>
</svg>
